{"accessors" : [{"bufferView" : 0, "byteOffset" : 0, "componentType" : 5125, "count" : 166062, "type" : "SCALAR", "max" : [72794], "min" : [0]}, {"bufferView" : 1, "byteOffset" : 0, "componentType" : 5126, "count" : 72795, "type" : "VEC3", "max" : [26.19403076171875, 33.50746154785156, 10], "min" : [-26.19403076171875, -33.50746154785156, -10], "name" : "POSITION"}, {"bufferView" : 1, "byteOffset" : 12, "componentType" : 5126, "count" : 72795, "type" : "VEC3", "max" : [0.9999765753746033, 0.9999765753746033, 1.0000044107437134], "min" : [-0.9999765753746033, -0.9999765753746033, -1.0000044107437134], "name" : "NORMAL"}], "asset" : {"generator" : "Aspose.3D 25.3.0", "version" : "2.0"}, "buffers" : [{"uri" : "data:application/octet-stream;base64,", "byteLength" : 2411336}], "bufferViews" : [{"buffer" : 0, "byteOffset" : 0, "byteLength" : 664248, "target" : 34963}, {"buffer" : 0, "byteOffset" : 664252, "byteLength" : 1747080, "byteStride" : 24, "target" : 34962}], "meshes" : [{"primitives" : [{"attributes" : {"POSITION" : 1, "NORMAL" : 2}, "indices" : 0, "mode" : 4}], "name" : ""}], "nodes" : [{"mesh" : 0, "name" : ""}], "scene" : 0, "scenes" : [{"nodes" : [0]}]}